#!OML:ASF E:\acrobat2\Project_11_07_03\Capture day 1\Session 1\Acrobat.ASF
:FULLY-SPECIFIED
:DEGREES
193
root 6.41142 14.7219 14.626 145.211 6.40975 1.11828
lowerback -10.1319 0.266252 2.40677
upperback -6.91915 0.176587 0.344921
thorax -1.51301 0.018913 -0.97904
lowerneck -5.62578 -0.70213 -1.8299
upperneck -22.6009 -0.0158154 5.30927
head -5.90986 -0.224818 2.0116
rclavicle -1.0312e-014 -9.93923e-017
rhumerus 60.136 -2.14396 -47.739
rradius 45.0749
rwrist -10.7212
rhand -48.7829 278.217
rfingers 7.12502
rthumb -21.4205 470.618
lclavicle -1.0312e-014 -9.93923e-017
lhumerus -297.368 6.72061 -314.454
lradius 41.9041
lwrist 16.9347
lhand -43.5209 -66.3404
lfingers 7.12502
lthumb -16.36 -37.0104
rfemur 23.4497 -4.24098 0.346268
rtibia 59.9257
rfoot 1.76607 -2.71234
rtoes 8.63209
lfemur 18.8078 0.825212 4.25929
ltibia 76.8718
lfoot 0.566671 32.2319
ltoes 66.9989
194
root 6.34709 14.6884 14.7236 145.076 6.72022 1.15527
lowerback -10.2133 0.35981 2.22102
upperback -6.85989 0.321267 0.271631
thorax -1.40139 0.10221 -0.937897
lowerneck -5.8795 -0.782377 -1.65383
upperneck -22.8483 -0.0384702 5.73822
head -5.94454 -0.282739 2.1234
rclavicle -1.32192e-014 -1.24986e-014
rhumerus 59.3006 -1.86219 -47.6239
rradius 45.3896
rwrist -10.799
rhand -48.6381 277.559
rfingers 7.12502
rthumb -21.2815 471.292
lclavicle -1.32192e-014 -1.24986e-014
lhumerus -297.685 6.1638 -314.798
lradius 42.2204
lwrist 16.8131
lhand -43.609 -66.8467
lfingers 7.12502
lthumb -16.4448 -37.5237
rfemur 23.3928 -2.06442 3.56694
rtibia 47.7502
rfoot -0.642193 -3.24556
rtoes -19.228
lfemur 18.2036 -0.162298 2.87439
ltibia 66.2808
lfoot -1.32977 31.578
ltoes 66.9127
195
root 6.27885 14.7158 14.8487 145.263 7.38237 1.23839
lowerback -9.82631 0.50552 2.22837
upperback -6.55464 0.531376 0.293398
thorax -1.28598 0.216174 -0.902747
lowerneck -7.02079 -0.870734 -1.58749
upperneck -23.3893 -0.0479221 6.19639
head -5.92946 -0.316794 2.26479
rclavicle 2.13694e-014 1.00883e-014
rhumerus 59.3018 -2.27508 -47.7416
rradius 45.7171
rwrist -10.897
rhand -48.4195 277.008
rfingers 7.12502
rthumb -21.0714 471.867
lclavicle 2.13694e-014 1.00883e-014
lhumerus -297.12 6.47686 -314.871
lradius 42.1989
lwrist 16.2811
lhand -43.7573 -67.2304
lfingers 7.12502
lthumb -16.5875 -37.9193
rfemur 23.1726 0.591763 7.55808
rtibia 35.129
rfoot -3.12284 -2.68426
rtoes -37.5355
lfemur 17.7103 -1.31434 1.75868
ltibia 53.5328
lfoot 13.4463 24.7861
ltoes 66.3631
196
root 6.20485 14.8215 15.0109 146.101 8.02699 1.01651
lowerback -8.4201 0.574787 2.13023
upperback -7.31772 0.688176 0.126324
thorax -2.85005 0.278235 -1.02428
lowerneck -6.38135 -0.859039 -1.89606
upperneck -23.7852 0.133279 6.87498
head -6.16248 -0.259421 2.54139
rclavicle 1.75924e-014 6.75868e-015
rhumerus 58.7816 -1.90243 -48.1076
rradius 45.791
rwrist -11.0922
rhand -48.372 276.621
rfingers 7.12502
rthumb -21.0258 472.259
lclavicle 1.75924e-014 6.75868e-015
lhumerus -297.121 6.46783 -315.055
lradius 41.8228
lwrist 15.45
lhand -43.7505 -67.2777
lfingers 7.12502
lthumb -16.581 -37.966
rfemur 22.048 3.26258 11.0887
rtibia 22.2304
rfoot -5.91067 -1.52308
rtoes -48.6059
lfemur 16.7758 -2.11553 0.53066
ltibia 38.6615
lfoot 25.3763 2.58894
ltoes 49.4716
197
root 6.13071 15.0262 15.2231 147.554 8.35848 0.510308
lowerback -8.23781 0.648511 1.84884
upperback -7.95003 0.811586 -0.420286
thorax -3.6096 0.332 -1.43234
lowerneck -3.54286 -0.725504 -1.90441
upperneck -26.0487 0.549004 7.27338
head -7.40665 -0.167271 2.71622
rclavicle -3.18055e-015 6.75868e-015
rhumerus 58.7622 -2.07261 -48.9595
rradius 45.2733
rwrist -11.0582
rhand -48.3487 276.496
rfingers 7.12502
rthumb -21.0034 472.387
lclavicle -3.18055e-015 6.75868e-015
lhumerus -296.245 6.70195 -315.143
lradius 40.9752
lwrist 14.8757
lhand -43.7024 -67.2273
lfingers 7.12502
lthumb -16.5347 -37.9118
rfemur 19.5738 6.46993 13.6046
rtibia 10.5864
rfoot -9.57887 -1.41186
rtoes -54.7245
lfemur 15.0594 -3.29937 -1.26361
ltibia 24.5518
lfoot 19.4765 -20.4367
ltoes 44.4288
198
root 6.0715 15.3456 15.489 149.093 8.7539 -0.320373
lowerback -6.52682 0.747003 1.10304
upperback -8.08125 1.00051 -0.786263
thorax -4.69495 0.449158 -1.41187
lowerneck -3.68237 -0.758152 -2.00611
upperneck -27.4856 0.58454 7.23414
head -7.87476 -0.152234 2.75201
rclavicle -3.63776e-014 -1.59028e-015
rhumerus 60.7424 -3.49217 -49.7481
rradius 44.1949
rwrist -10.9009
rhand -48.0589 276.843
rfingers 7.12502
rthumb -20.725 472.071
lclavicle -3.63776e-014 -1.59028e-015
lhumerus -293.525 8.32852 -314.33
lradius 38.9422
lwrist 14.2273
lhand -43.8113 -67.7636
lfingers 7.12502
lthumb -16.6396 -38.4569
rfemur 16.0474 13.7189 15.5718
rtibia -1.40602
rfoot -13.6165 1.40315
rtoes -53.0224
lfemur 12.5686 -6.03561 -3.70176
ltibia 10.8938
lfoot 3.47107 -26.8336
ltoes 50.0368
199
root 6.03452 15.7611 15.7877 150.672 6.46491 0.780529
lowerback -4.20067 -0.162079 0.489176
upperback -7.7364 -0.271303 -1.03393
thorax -5.67659 -0.196093 -1.34563
lowerneck -5.09291 -0.802323 -2.54289
upperneck -28.2095 0.717096 7.81949
head -7.88427 -0.0616732 3.05001
rclavicle -1.76918e-014 -1.59028e-014
rhumerus 64.0305 -5.55191 -50.4118
rradius 42.4384
rwrist -10.8239
rhand -47.7266 277.898
rfingers 7.12502
rthumb -20.4057 471.049
lclavicle -1.76918e-014 -1.59028e-014
lhumerus -289.454 10.6352 -313.123
lradius 35.5083
lwrist 13.138
lhand -43.9594 -68.5049
lfingers 7.12502
lthumb -16.7821 -39.2102
rfemur 11.8751 13.7266 15.3244
rtibia -10.0964
rfoot -22.3768 -2.5035
rtoes -35.6535
lfemur 7.15684 -12.7516 -4.89087
ltibia 0.124323
lfoot -14.126 -20.0572
ltoes 38.9119
200
root 6.00406 16.2994 16.165 151.807 6.25581 2.23686
lowerback -0.531643 -0.435608 1.38211
upperback -7.50796 -0.612725 -0.861784
thorax -7.56083 -0.433971 -1.63773
lowerneck -3.88627 -0.92308 -2.73753
upperneck -31.3906 0.883138 8.41294
head -9.24395 -0.0941812 3.39153
rclavicle -3.55825e-014 -1.88845e-014
rhumerus 67.5097 -7.98796 -50.6612
rradius 39.7857
rwrist -10.9555
rhand -47.5865 279.476
rfingers 7.12502
rthumb -20.271 469.486
lclavicle -3.55825e-014 -1.88845e-014
lhumerus -284.582 12.6399 -311.768
lradius 30.5742
lwrist 11.2764
lhand -44.2039 -68.1142
lfingers 7.12502
lthumb -17.0175 -38.8396
rfemur 3.38284 15.3107 15.7986
rtibia -11.0626
rfoot -29.58 -7.6477
rtoes -26.1288
lfemur 0.0869048 -17.8109 -2.4286
ltibia -6.12323
lfoot -15.0311 -16.0508
ltoes -6.92009
201
root 6.01988 16.9164 16.5177 152.835 7.99086 5.32866
lowerback 2.81703 -0.4096 5.50251
upperback -6.64595 -0.181607 -0.185333
thorax -8.62411 -0.472228 -3.25986
lowerneck -2.11876 -1.1382 -2.57818
upperneck -36.7241 1.04461 8.86642
head -11.7028 -0.213842 3.7748
rclavicle -2.54444e-014 -1.39149e-014
rhumerus 72.3645 -11.4018 -50.7441
rradius 35.7028
rwrist -10.9365
rhand -47.3806 282.028
rfingers 7.12502
rthumb -20.0732 466.955
lclavicle -2.54444e-014 -1.39149e-014
lhumerus -278.014 15.2237 -308.379
lradius 24.2413
lwrist 6.11832
lhand -44.2651 -64.3094
lfingers 7.12502
lthumb -17.0764 -35.0399
rfemur -10.0351 17.6711 17.2928
rtibia -2.12898
rfoot -42.0611 -14.939
rtoes 6.21541
lfemur -8.45599 -12.8466 3.19337
ltibia -8.22499
lfoot -18.9023 -0.0589274
ltoes -42.2341
202
root 6.04123 17.7138 16.9926 150.123 5.14958 0.605442
lowerback 11.4655 -0.378253 0.54991
upperback -5.47492 -0.665187 -2.04861
thorax -12.4915 -0.470409 -2.41052
lowerneck -0.261116 -1.49034 -1.59511
upperneck -42.9995 0.937452 8.76056
head -15.0751 -0.528514 4.00001
rclavicle -1.19271e-014 -2.78299e-015
rhumerus 78.1 -14.9734 -51.8777
rradius 29.9817
rwrist -9.50794
rhand -46.7105 286.321
rfingers 7.12502
rthumb -19.4289 462.728
lclavicle -1.19271e-014 -2.78299e-015
lhumerus -270.673 17.4156 -302.884
lradius 18.0735
lwrist -2.49403
lhand -43.2771 -56.579
lfingers 7.12502
lthumb -16.1252 -27.2299
rfemur -18.4447 4.35553 11.5999
rtibia 1.35011
rfoot -32.3412 1.3981
rtoes 26.7451
lfemur -17.054 -9.87452 -3.65842
ltibia -4.64625
lfoot -15.7504 2.30538
ltoes -22.1965
203
root 5.98203 18.4591 17.331 147.493 2.35777 -2.05005
lowerback 18.2515 -0.0801789 -2.75359
upperback -3.88425 -1.24528 -3.36314
thorax -14.7776 -0.52753 -1.86848
lowerneck 1.26498 -1.92517 -0.617821
upperneck -49.3114 0.50592 8.34225
head -19.3443 -0.887308 4.31445
rclavicle 1.15295e-014 3.18055e-015
rhumerus 85.1558 -17.8516 -57.6462
rradius 23.2652
rwrist -3.17665
rhand -45.0862 293.457
rfingers 7.12502
rthumb -17.8666 455.743
lclavicle 1.15295e-014 3.18055e-015
lhumerus -265.103 19.1172 -300.143
lradius 15.0008
lwrist -7.49499
lhand -43.4331 -50.1502
lfingers 7.12502
lthumb -16.2754 -20.8132
rfemur -27.0156 -0.693057 8.22891
rtibia 7.8792
rfoot -10.6791 26.3295
rtoes 72.5196
lfemur -25.4925 -7.70334 -9.11914
ltibia 0.434844
lfoot -14.7589 -2.98922
ltoes -15.0708
204
root 5.99902 19.1653 17.5463 144.6 1.77847 -0.0489821
lowerback 23.7727 -0.685907 0.839174
upperback -2.04119 -1.23853 -3.67867
thorax -15.9561 -0.857151 -4.32081
lowerneck 3.29361 -2.1979 0.596336
upperneck -55.2276 -0.0358368 7.23009
head -25.809 -1.06282 4.51962
rclavicle 1.47101e-014 5.48646e-014
rhumerus 93.5824 -20.3006 -66.4925
rradius 17.1929
rwrist 6.00873
rhand -42.6896 301.048
rfingers 7.12502
rthumb -15.5594 631.654
lclavicle 1.47101e-014 5.48646e-014
lhumerus -262.338 21.2062 -303.489
lradius 14.1407
lwrist -6.79505
lhand -41.7785 -34.7654
lfingers 7.12502
lthumb -14.6818 -5.30523
rfemur -34.1004 -3.66262 10.7146
rtibia 12.0962
rfoot -5.96228 24.9731
rtoes 69.9329
lfemur -33.849 -6.27976 -9.80304
ltibia 6.4095
lfoot -10.0394 -7.65807
ltoes -0.536038
205
root 5.97532 19.869 17.6086 143.813 3.3406 0.914504
lowerback 24.5651 -0.167017 3.20005
upperback -0.521786 0.172627 -3.46339
thorax -14.4523 -0.355693 -5.92297
lowerneck 3.82342 -2.14157 2.08686
upperneck -58.2092 -0.769371 4.89105
head -31.7948 -1.20626 3.51068
rclavicle -2.50469e-014 3.18055e-015
rhumerus 100.02 -21.9505 -73.6263
rradius 14.9417
rwrist 14.1135
rhand -40.026 306.3
rfingers 7.12502
rthumb -12.9928 636.725
lclavicle -2.50469e-014 3.18055e-015
lhumerus -260.5 23.2392 -305.808
lradius 14.8459
lwrist -4.27507
lhand -36.0853 -25.0268
lfingers 7.12502
lthumb -9.19216 4.7528
rfemur -44.7313 -1.41839 11.9119
rtibia 17.1238
rfoot -6.38955 23.5136
rtoes 65.0693
lfemur -44.5154 -3.04565 -9.12124
ltibia 12.7871
lfoot -9.12561 -10.5012
ltoes 10.0225
206
root 5.96294 20.4717 17.6186 140.991 4.00903 2.89126
lowerback 24.3674 0.302941 4.40366
upperback 2.63044 1.29062 -1.62519
thorax -10.5462 0.337728 -4.77256
lowerneck 3.14473 -1.8336 1.76463
upperneck -59.7255 -1.77469 2.67543
head -37.9156 -1.11691 2.53518
rclavicle -3.57812e-015 3.97569e-015
rhumerus 100.731 -26.8204 -65.8818
rradius 16.4787
rwrist 9.74542
rhand -35.4905 309.778
rfingers 7.12502
rthumb -8.61813 639.974
lclavicle -3.57812e-015 3.97569e-015
lhumerus -258.495 25.5026 -303.317
lradius 16.2681
lwrist -3.31202
lhand -28.8786 -20.6602
lfingers 7.12502
lthumb -2.23445 9.30783
rfemur -51.6241 -0.561118 12.7304
rtibia 20.2529
rfoot -4.49975 22.5403
rtoes 63.4534
lfemur -52.5551 -1.85672 -9.75884
ltibia 18.3822
lfoot -9.75498 -11.9612
ltoes 4.92176
